<svg xmlns="http://www.w3.org/2000/svg" width="512" height="512" viewBox="0 0 512 512">

  

  <g transform="translate(256,256) scale(1.244) translate(-256,-202)">

    <g>
      <circle cx="256" cy="128" r="102" fill="#F5A018"/>
      <circle cx="334" cy="185" r="102" fill="#EDD018"/>
      <circle cx="304" cy="276" r="102" fill="#42B865"/>
      <circle cx="208" cy="276" r="102" fill="#4285D8"/>
      <circle cx="178" cy="185" r="102" fill="#E84030"/>
    </g>

    <circle cx="256" cy="210" r="66" fill="#FFFFFF"/>
    <circle cx="256" cy="210" r="57" fill="#2A2A2A"/>
    <circle cx="256" cy="210" r="48" fill="#161616"/>
    <circle cx="256" cy="210" r="38" fill="#1E1E1E"/>
    <g transform="translate(256,210)">
      <ellipse rx="31" ry="11.5" fill="#111111" transform="rotate(0)"/>
      <ellipse rx="31" ry="11.5" fill="#111111" transform="rotate(60)"/>
      <ellipse rx="31" ry="11.5" fill="#111111" transform="rotate(120)"/>
    </g>
    <circle cx="256" cy="210" r="14" fill="#080808"/>
    <circle cx="246" cy="200" r="6.5" fill="rgba(255,255,255,0.28)"/>
    <circle cx="263" cy="217" r="2.8" fill="rgba(255,255,255,0.13)"/>
    <path d="M 215 193 A 50 50 0 0 1 256 162" stroke="rgba(255,255,255,0.10)" stroke-width="2" fill="none" stroke-linecap="round"/>

  </g>

</svg>
